<svg width="100" height="101" viewBox="0 0 100 101" fill="none" xmlns="http://www.w3.org/2000/svg">
<path fill-rule="evenodd" clip-rule="evenodd" d="M0 50L50 25L100 0V26.5L26.5 63.5L0 50ZM36 42L74.5 23V30L43 45.5L36 42Z" fill="#484848"/>
<path d="M33 67L45.5 60.5L71.5 73.5L64 62.5L53 57L99.5 34V45.5L76 57L95.5 86L99.5 88V100.5L33 67Z" fill="black" fill-opacity="0.5"/>
<path d="M76 57L64 62.5L71.5 73.5L95.5 86L76 57Z" fill="black" fill-opacity="0.5"/>
<path d="M85 93L64 62.5L58.5 54.5L70 48.5L99.5 92V93V100.5L85 93Z" fill="black" fill-opacity="0.5"/>
</svg>
