<?xml version="1.0" encoding="utf-8"?>
<!-- Generator: Adobe Illustrator 23.0.3, SVG Export Plug-In . SVG Version: 6.00 Build 0)  -->
<svg version="1.1" id="Icons" xmlns="http://www.w3.org/2000/svg" xmlns:xlink="http://www.w3.org/1999/xlink" x="0px" y="0px"
	 viewBox="0 0 32 32" style="enable-background:new 0 0 32 32;" xml:space="preserve">
<style type="text/css">
	.st0{fill:none;stroke:#000000;stroke-width:2;stroke-linecap:round;stroke-linejoin:round;stroke-miterlimit:10;}
</style>
<path fill="#000000" d="M12.5,23h-1.3c0,0,0,0,0-0.1c-0.1-0.2-0.2-0.4-0.4-0.5c0,0-0.1-0.1-0.1-0.1c-0.3-0.4-0.6-0.7-1-1c0,0-0.1-0.1-0.1-0.1
	c-0.2-0.1-0.3-0.2-0.5-0.3c0,0-0.1-0.1-0.1-0.1c-0.4-0.2-0.9-0.4-1.3-0.6c-0.1,0-0.1,0-0.2,0c-0.2,0-0.4-0.1-0.5-0.1
	c-0.1,0-0.1,0-0.2,0c-0.2,0-0.5,0-0.7,0c-3.3,0-6,2.7-6,6s2.7,6,6,6c0.1,0,0.2,0,0.2,0c0.1,0,0.2,0,0.3,0h6c2.5,0,4.5-2,4.5-4.5
	S15,23,12.5,23z"/>
<!--<path fill="#000000" d="M27.9,4.8h-0.6c0,0,0,0,0,0c0,0,0-0.1-0.1-0.1c-0.1-0.2-0.2-0.3-0.4-0.5c0,0-0.1-0.1-0.1-0.1c-0.2-0.2-0.3-0.3-0.5-0.4
	c0,0-0.1,0-0.1-0.1c-0.2-0.1-0.3-0.2-0.5-0.3c0,0-0.1,0-0.1-0.1c-0.2-0.1-0.4-0.2-0.6-0.2c-0.1,0-0.1,0-0.2,0C24.5,3,24.2,3,24,3
	c-2.2,0-4,1.8-4,4s1.8,4,4,4c0.1,0,0.1,0,0.2,0c0.1,0,0.1,0,0.1,0h3.6c1.7,0,3.1-1.4,3.1-3.1C31,6.2,29.6,4.8,27.9,4.8z"/>-->
<g fill="#000000">
	<polygon points="9,20.8 9,20.8 9,20.8 	"/>
	<path d="M29.2,14.2c-0.4-0.1-0.9,0.1-1.1,0.5C26.7,17.3,24,19,21,19c-4.4,0-8-3.6-8-8c0-3,1.7-5.7,4.3-7.1c0.4-0.2,0.6-0.7,0.5-1.1
		c-0.1-0.4-0.5-0.8-1-0.8c0,0,0,0,0,0C9.8,2.1,4,7.9,4,15c0,1.1,0.1,2.1,0.4,3.2C4.9,18.1,5.5,18,6,18c0.3,0,0.7,0,1,0.1l0.2,0
		c0.3,0,0.5,0.1,0.8,0.2l0.2,0.1c0.6,0.2,1.2,0.4,1.8,0.7l0.2,0.1c0.2,0.1,0.5,0.3,0.7,0.4l0.2,0.1c0.5,0.4,0.9,0.8,1.3,1.3h0.3
		c3.6,0,6.5,2.9,6.5,6.5c0,0.1,0,0.2,0,0.3c6.2-1,10.9-6.3,11-12.7C30,14.7,29.7,14.3,29.2,14.2z"/>
</g>
</svg>
