<svg width="48" height="48" viewBox="0 0 48 48" fill="none" xmlns="http://www.w3.org/2000/svg">
<circle cx="24" cy="24" r="24" fill="#FFDD00"/>
<path d="M24.6639 22.8433C23.62 23.3509 22.4354 23.9264 20.9001 23.9264C20.2578 23.925 19.6186 23.8249 19 23.6289L20.0619 36.0124C20.0994 36.5299 20.307 37.0125 20.6434 37.3643C20.9797 37.7161 21.4203 37.9112 21.8775 37.9112C21.8775 37.9112 23.3831 38 23.8855 38C24.4261 38 26.0475 37.9112 26.0475 37.9112C26.5046 37.9112 26.945 37.7158 27.2813 37.3641C27.6176 37.0123 27.8251 36.5299 27.8627 36.0124L29 22.3282C28.4918 22.131 27.9788 22 27.4006 22C26.4005 21.9996 25.5947 22.3908 24.6639 22.8433Z" fill="white"/>
<path d="M34.9019 16.5529L34.7266 15.6648C34.5694 14.8679 34.2125 14.115 33.3984 13.827C33.1375 13.7348 32.8414 13.6953 32.6414 13.5045C32.4413 13.3138 32.3821 13.0177 32.3359 12.743C32.2502 12.2389 32.1696 11.7343 32.0818 11.2311C32.006 10.7984 31.946 10.3124 31.7485 9.91549C31.4914 9.38254 30.958 9.07086 30.4275 8.86465C30.1557 8.7627 29.8784 8.67646 29.5968 8.60635C28.2716 8.25507 26.8782 8.12592 25.5149 8.0523C23.8785 7.96158 22.2378 7.98891 20.6052 8.1341C19.3902 8.24516 18.1104 8.37948 16.9557 8.8018C16.5337 8.95635 16.0988 9.14189 15.7779 9.4695C15.3841 9.87201 15.2556 10.4945 15.5431 10.9965C15.7474 11.3529 16.0936 11.6048 16.4608 11.7714C16.9391 11.986 17.4386 12.1494 17.951 12.2587C19.3777 12.5755 20.8555 12.6999 22.3131 12.7529C23.9286 12.8184 25.5467 12.7653 27.1546 12.594C27.5522 12.5501 27.9491 12.4975 28.3453 12.4361C28.8118 12.3642 29.1113 11.7511 28.9738 11.3241C28.8093 10.8135 28.3671 10.6155 27.8671 10.6925C27.7934 10.7042 27.7202 10.7149 27.6464 10.7257L27.5933 10.7334C27.4239 10.755 27.2546 10.775 27.0852 10.7937C26.7353 10.8316 26.3845 10.8626 26.0329 10.8867C25.2454 10.9418 24.4558 10.9672 23.6666 10.9685C22.891 10.9685 22.1151 10.9465 21.3413 10.8953C20.9883 10.8721 20.6361 10.8425 20.2848 10.8066C20.1249 10.7898 19.9656 10.7722 19.8062 10.7524L19.6545 10.733L19.6215 10.7283L19.4643 10.7055C19.1429 10.6568 18.8216 10.6009 18.5037 10.5332C18.4716 10.5261 18.4429 10.5082 18.4223 10.4824C18.4018 10.4567 18.3906 10.4246 18.3906 10.3916C18.3906 10.3586 18.4018 10.3266 18.4223 10.3008C18.4429 10.2751 18.4716 10.2571 18.5037 10.25H18.5097C18.7852 10.191 19.0628 10.1406 19.3413 10.0967C19.4342 10.0821 19.5273 10.0677 19.6207 10.0537H19.6232C19.7976 10.0421 19.9729 10.0106 20.1464 9.98997C21.6561 9.83218 23.1748 9.77839 24.6918 9.82896C25.4283 9.85049 26.1644 9.89397 26.8975 9.96887C27.0552 9.98523 27.212 10.0025 27.3688 10.0218C27.4288 10.0291 27.4892 10.0378 27.5496 10.0451L27.6713 10.0627C28.0261 10.1158 28.3789 10.1802 28.73 10.256C29.2502 10.3697 29.9181 10.4067 30.1495 10.9792C30.2232 11.1609 30.2566 11.3628 30.2973 11.5535L30.3491 11.7968C30.3505 11.8011 30.3515 11.8056 30.3521 11.8101C30.4747 12.3841 30.5974 12.9581 30.7202 13.5321C30.7292 13.5745 30.7294 13.6183 30.7208 13.6608C30.7122 13.7033 30.695 13.7435 30.6702 13.7791C30.6455 13.8146 30.6137 13.8446 30.5769 13.8672C30.54 13.8898 30.499 13.9045 30.4562 13.9105H30.4528L30.3778 13.9208L30.3037 13.9307C30.0689 13.9614 29.8339 13.9901 29.5985 14.0168C29.1349 14.0699 28.6706 14.1158 28.2056 14.1546C27.2815 14.2318 26.3557 14.2824 25.4279 14.3066C24.9552 14.3192 24.4826 14.3251 24.0102 14.3242C22.1297 14.3227 20.2508 14.2129 18.3829 13.9953C18.1806 13.9712 17.9784 13.9454 17.7762 13.9191C17.933 13.9394 17.6622 13.9036 17.6074 13.8959C17.4788 13.8778 17.3503 13.859 17.2217 13.8395C16.7903 13.7744 16.3614 13.6944 15.9308 13.6242C15.4103 13.5381 14.9124 13.5812 14.4415 13.8395C14.055 14.052 13.7422 14.3779 13.5448 14.7737C13.3417 15.1955 13.2813 15.6549 13.1904 16.1082C13.0996 16.5615 12.9582 17.0493 13.0118 17.5146C13.127 18.519 13.8258 19.3352 14.831 19.5177C15.7766 19.6899 16.7273 19.8294 17.6806 19.9482C21.4254 20.409 25.2087 20.4642 28.9652 20.1127C29.2711 20.084 29.5766 20.0527 29.8817 20.0188C29.977 20.0083 30.0734 20.0193 30.1639 20.0511C30.2544 20.0829 30.3366 20.1346 30.4047 20.2024C30.4727 20.2703 30.5247 20.3526 30.557 20.4432C30.5893 20.5339 30.601 20.6307 30.5912 20.7265L30.4961 21.6556C30.3044 23.5328 30.1128 25.4099 29.9211 27.2869C29.7212 29.258 29.5199 31.229 29.3174 33.1996C29.2603 33.7548 29.2032 34.3098 29.146 34.8644C29.0912 35.4109 29.0835 35.9743 28.9802 36.5142C28.8174 37.3631 28.2454 37.8845 27.4108 38.0752C26.6462 38.2501 25.865 38.3419 25.0809 38.3489C24.2115 38.3537 23.3426 38.3149 22.4733 38.3196C21.5453 38.3249 20.4086 38.2388 19.6922 37.5448C19.0628 36.9353 18.9758 35.9808 18.8901 35.1554C18.7759 34.0628 18.6627 32.9704 18.5504 31.8781L17.9206 25.8042L17.5131 21.8743C17.5062 21.8093 17.4994 21.7451 17.493 21.6797C17.4441 21.2109 17.1138 20.752 16.5932 20.7756C16.1476 20.7954 15.6412 21.176 15.6935 21.6797L15.9955 24.5933L16.6202 30.6202C16.7982 32.3322 16.9757 34.0443 17.1528 35.7569C17.1871 36.0849 17.2192 36.4139 17.2552 36.7419C17.451 38.5345 18.8135 39.5005 20.5007 39.7725C21.4861 39.9319 22.4956 39.9647 23.4956 39.9809C24.7775 40.0017 26.0723 40.0512 27.3332 39.8178C29.2017 39.4733 30.6036 38.2198 30.8037 36.2753C30.8609 35.7138 30.918 35.1524 30.9751 34.5907C31.165 32.7332 31.3547 30.8757 31.5441 29.0179L32.1636 22.9479L32.4477 20.1661C32.4618 20.0281 32.5198 19.8984 32.613 19.7961C32.7063 19.6939 32.8298 19.6245 32.9653 19.5982C33.4995 19.4936 34.0103 19.3149 34.3903 18.9064C34.9953 18.2559 35.1157 17.4079 34.9019 16.5529ZM14.8036 17.153C14.8117 17.1491 14.7967 17.2193 14.7903 17.252C14.789 17.2025 14.7916 17.1586 14.8036 17.153ZM14.8554 17.5559C14.8597 17.5529 14.8725 17.5702 14.8858 17.5908C14.8657 17.5719 14.8528 17.5577 14.855 17.5559H14.8554ZM14.9064 17.6235C14.9248 17.6549 14.9347 17.6748 14.9064 17.6235V17.6235ZM15.0088 17.707H15.0114C15.0114 17.7101 15.0161 17.7131 15.0178 17.7161C15.0149 17.7128 15.0118 17.7097 15.0084 17.707H15.0088ZM32.9404 17.5822C32.7485 17.7656 32.4593 17.8508 32.1735 17.8935C28.9686 18.3713 25.7171 18.6132 22.4771 18.5065C20.1584 18.4269 17.864 18.1681 15.5684 17.8422C15.3434 17.8104 15.0996 17.769 14.945 17.6024C14.6536 17.2882 14.7967 16.6553 14.8725 16.2756C14.942 15.9278 15.0748 15.4642 15.4865 15.4147C16.1292 15.3389 16.8756 15.6114 17.5114 15.7083C18.2769 15.8256 19.0453 15.9196 19.8165 15.9902C23.1078 16.2916 26.4545 16.2446 29.7313 15.8038C30.3286 15.7232 30.9237 15.6295 31.5167 15.5227C32.045 15.4276 32.6307 15.2489 32.9499 15.7987C33.1688 16.1732 33.1979 16.6743 33.1641 17.0975C33.1536 17.2818 33.0735 17.4552 32.94 17.5822H32.9404Z" fill="#0D0C22"/>
</svg>
