<svg width="48" height="48" viewBox="0 0 48 48" fill="none" xmlns="http://www.w3.org/2000/svg">
<path d="M48 24C48 37.2548 37.2548 48 24 48C10.7452 48 0 37.2548 0 24C0 10.7452 10.7452 0 24 0C37.2548 0 48 10.7452 48 24Z" fill="white"/>
<path d="M37.8607 25.422C37.8488 31.5801 33.2223 36.6222 27.3452 37.1208C27.3452 37.1208 19.798 37.3148 17.2967 37.0931C16.8397 37.0372 16.4056 36.8613 16.0385 36.5832C15.6715 36.3052 15.3846 35.9349 15.2071 35.5101C15.5547 35.6792 15.9302 35.7838 16.3152 35.8188C17.1345 35.89 18.5315 35.9256 20.4787 35.9256C23.34 35.9256 26.4428 35.8465 26.4745 35.8465H26.5299C29.6419 35.5797 32.535 34.136 34.6193 31.8097C36.4035 29.8355 37.5305 27.3559 37.8448 24.7136C37.8567 24.9392 37.8607 25.1806 37.8607 25.422Z" fill="#3770FF"/>
<path d="M36.9385 22.8535C36.9385 29.0116 32.3002 34.0497 26.4231 34.5405C26.4231 34.5405 18.8758 34.7383 16.3746 34.5167C15.0329 34.398 14.0277 33.1117 14 31.691L14.0237 13.9013C14.0633 12.4805 15.0725 11.1983 16.4181 11.0874C18.9233 10.8777 26.4666 11.1112 26.4666 11.1112C32.3397 11.6336 36.9385 16.6954 36.9385 22.8535Z" fill="#3770FF"/>
</svg>
