<svg width="256" height="293" viewBox="0 0 256 293" fill="none" xmlns="http://www.w3.org/2000/svg">
<rect x="26" y="43" width="205" height="162" fill="white"/>
<path d="M226.011 0H29.9886C13.4583 0 0 13.4583 0 30.1349V227.913C0 244.59 13.4583 258.048 29.9886 258.048H195.877L188.123 230.985L206.848 248.393L224.549 264.777L256 292.571V30.1349C256 13.4583 242.542 0 226.011 0ZM169.545 191.049C169.545 191.049 164.279 184.759 159.89 179.2C179.054 173.787 186.368 161.792 186.368 161.792C180.37 165.742 174.665 168.521 169.545 170.423C162.231 173.495 155.209 175.543 148.334 176.713C134.29 179.346 121.417 178.615 110.446 176.567C102.107 174.958 94.9394 172.617 88.9417 170.277C85.5771 168.96 81.92 167.351 78.2629 165.303C77.824 165.01 77.3851 164.864 76.9463 164.571C76.6537 164.425 76.5074 164.279 76.3611 164.133C73.728 162.67 72.2651 161.646 72.2651 161.646C72.2651 161.646 79.2869 173.349 97.8651 178.907C93.4766 184.466 88.064 191.049 88.064 191.049C55.7349 190.025 43.4469 168.814 43.4469 168.814C43.4469 121.71 64.512 83.5291 64.512 83.5291C85.5771 67.7303 105.618 68.1691 105.618 68.1691L107.081 69.9246C80.7497 77.5314 68.608 89.088 68.608 89.088C68.608 89.088 71.8263 87.3326 77.2389 84.8457C92.8914 77.9703 105.326 76.0686 110.446 75.6297C111.323 75.4834 112.055 75.3371 112.933 75.3371C121.856 74.1669 131.95 73.8743 142.482 75.0446C156.379 76.6537 171.301 80.7497 186.514 89.088C186.514 89.088 174.958 78.1166 150.089 70.5097L152.137 68.1691C152.137 68.1691 172.178 67.7303 193.243 83.5291C193.243 83.5291 214.309 121.71 214.309 168.814C214.309 168.814 201.874 190.025 169.545 191.049ZM101.522 122.734C93.184 122.734 86.6011 130.048 86.6011 138.971C86.6011 147.895 93.3303 155.209 101.522 155.209C109.861 155.209 116.443 147.895 116.443 138.971C116.59 130.048 109.861 122.734 101.522 122.734ZM154.917 122.734C146.578 122.734 139.995 130.048 139.995 138.971C139.995 147.895 146.725 155.209 154.917 155.209C163.255 155.209 169.838 147.895 169.838 138.971C169.838 130.048 163.255 122.734 154.917 122.734Z" fill="#7289DA"/>
</svg>
